# AST/ASF file generated using VICON BodyLanguage
# -----------------------------------------------
:version 1.10
:name VICON
:units
  mass 1.0
  length 0.45
  angle deg
:documentation
   .ast/.asf automatically generated from VICON data using
   VICON BodyBuilder and BodyLanguage model FoxedUp or BRILLIANT.MOD
:root
   order TX TY TZ RX RY RZ
   axis XYZ
   position 0 0 0  
   orientation 0 0 0 
:bonedata
  begin
     id 1 
     name lhipjoint
     direction 0.610259 -0.730986 0.305356 
     length 2.50941 
     axis 0 0 0  XYZ
  end
  begin
     id 2 
     name lfemur
     direction 0.34202 -0.939693 0  
     length 7.48822  
     axis 0 0 20  XYZ
    dof rx ry rz
    limits (-160.0 20.0)
           (-70.0 70.0)
           (-60.0 70.0)
  end
  begin
     id 3 
     name ltibia
     direction 0.34202 -0.939693 0   
     length 7.60141   
     axis 0 0 20   XYZ
    dof rx
    limits (-10.0 170.0)
  end
  begin
     id 4 
     name lfoot
     direction 0.0673488 -0.185039 0.980421   
     length 2.04049   
     axis -90 7.62852e-016 20   XYZ
    dof rx rz
    limits (-45.0 90.0)
           (-70.0 20.0)
  end
  begin
     id 5 
     name ltoes
     direction 1.5356e-011 -4.21729e-011 1   
     length 1.02897   
     axis -90 7.62852e-016 20   XYZ
    dof rx
    limits (-90.0 20.0)
  end
  begin
     id 6 
     name rhipjoint
     direction -0.57612 -0.754205 0.315056   
     length 2.43216  
     axis 0 0 0  XYZ 
  end
  begin
     id 7 
     name rfemur
     direction -0.34202 -0.939693 0   
     length 7.42799   
     axis 0 0 -20   XYZ
    dof rx ry rz
    limits (-160.0 20.0)
           (-70.0 70.0)
           (-70.0 60.0)
  end
  begin
     id 8 
     name rtibia
     direction -0.34202 -0.939693 0   
     length 7.69484   
     axis 0 0 -20   XYZ
    dof rx
    limits (-10.0 170.0)
 end
 begin
     id 9 
     name rfoot
     direction -0.111837 -0.30727 0.945028   
     length 2.15769  
     axis -90 -7.62852e-016 -20   XYZ
    dof rx rz
    limits (-45.0 90.0)
           (-20.0 70.0)
  end
  begin
     id 10 
     name rtoes
     direction -1.53539e-011 -4.21878e-011 1   
     length 1.07391   
     axis -90 -7.62852e-016 -20   XYZ
    dof rx
    limits (-90.0 20.0)
  end
  begin
     id 11 
     name lowerback
     direction 0.00552624 0.990109 -0.140195   
     length 2.12403   
     axis 0 0 0   XYZ
    dof rx ry rz
    limits (-20.0 45.0)
           (-30.0 30.0)
           (-30.0 30.0)
  end
  begin
     id 12 
     name upperback
     direction 0.00361898 0.999976 -0.00584723   
     length 2.13232   
     axis 0 0 0   XYZ
    dof rx ry rz
    limits (-20.0 45.0)
           (-30.0 30.0)
           (-30.0 30.0)
  end
  begin
     id 13 
     name thorax
     direction -0.000331275 0.998253 0.0590847   
     length 2.17688   
     axis 0 0 0   XYZ
    dof rx ry rz
    limits (-20.0 45.0)
           (-30.0 30.0)
           (-30.0 30.0)
  end
  begin
     id 14 
     name lowerneck
     direction -0.0561561 0.979832 0.19177   
     length 1.64159   
     axis 0 0 0   XYZ
    dof rx ry rz
    limits (-20.0 45.0)
           (-30.0 30.0)
           (-30.0 30.0)
  end
  begin
     id 15 
     name upperneck
     direction 0.0827153 0.979385 -0.184293   
     length 1.68939   
     axis 0 0 0   XYZ
    dof rx ry rz
    limits (-20.0 45.0)
           (-30.0 30.0)
           (-30.0 30.0)
  end
  begin
     id 16
     name head
     direction 0.0278583 0.995936 -0.0856488  
     length 1.70207  
     axis 0 0 0   XYZ
    dof rx ry rz
    limits (-20.0 45.0)
           (-30.0 30.0)
           (-30.0 30.0)
  end
  begin
     id 17 
     name lclavicle
     direction 0.950993 0.301131 -0.0702275  
     length 3.41652  
     axis 0 0 0   XYZ
    dof ry rz
    limits (-20.0 10.0)
           (0.0 20.0)
  end
  begin
     id 18 
     name lhumerus
     direction 1 -4.48981e-011 -3.9662e-029   
     length 5.32955   
     axis 180 -30 -90   XYZ
    dof rx ry rz
    limits (-60.0 90.0)
           (-90.0 90.0)
           (-90.0 90.0)
  end
  begin
     id 19
     name lradius
     direction 1 -4.48925e-011 -9.0549e-027   
     length 3.69232   
     axis 180 -30 -90   XYZ
    dof rx
    limits (-10.0 170.0)
  end
  begin
     id 20
     name lwrist
     direction 1 -4.49007e-011 -1.49005e-026   
     length 1.84616   
     axis 9.0955e-015 90 90   XYZ
    dof ry
    limits (-180.0 0.0)
 end
  begin
     id 21 
     name lhand
     direction 1 -4.49016e-011 -2.98023e-026   
     length 0.536598   
     axis 1.90115e-014 90 90   XYZ
    dof rx rz
    limits (-90.0 90.0)
           (-45.0 45.0)
  end
  begin
     id 22 
     name lfingers
     direction 1 -4.48924e-011 -5.9578e-026   
     length 0.432619   
     axis 3.80223e-014 90 90   XYZ
    dof rx
    limits (0.0 90.0)
  end
  begin
     id 23
     name lthumb
     direction 0.707107 -6.34947e-011 0.707107   
     length 0.621157   
     axis -90 45 -3.84942e-014   XYZ
    dof rx rz
    limits (-45.0 45.0)
           (-45.0 45.0)
  end
  begin
     id 24 
     name rclavicle
     direction -0.955495 0.276497 -0.102848   
     length 3.36357  
     axis 0 0 0   XYZ 
    dof ry rz
    limits (-10.0 20.0)
           (-20.0 0.0)
  end
  begin
     id 25 
     name rhumerus
     direction -1 -4.48961e-011 3.30983e-027  
     length 5.23431   
     axis 180 30 90   XYZ
    dof rx ry rz
    limits (-90.0 60.0)
           (-90.0 90.0)
           (-90.0 90.0)
  end
  begin
     id 26 
     name rradius
     direction -1 -4.48965e-011 -6.63263e-027   
     length 3.55301   
     axis 180 30 90   XYZ
    dof rx
    limits (-10.0 170.0)
  end
  begin
     id 27 
     name rwrist
     direction -1 -4.48942e-011 -1.48958e-026   
     length 1.77651   
     axis 9.0955e-015 -90 -90   XYZ
    dof ry
    limits (-180.0 0.0)
  end
  begin
     id 28
     name rhand
     direction -1 -4.48977e-011 -2.97966e-026   
     length 0.772522   
     axis 1.90115e-014 -90 -90   XYZ
    dof rx rz
    limits (-90.0 90.0)
           (-45.0 45.0)
  end
  begin
     id 29
     name rfingers
     direction -1 -4.49135e-011 -5.96389e-026   
     length 0.622827   
     axis 3.80223e-014 -90 -90   XYZ
    dof rx
    limits (0.0 90.0)
  end
  begin
     id 30
     name rthumb
     direction -0.707107 -6.34969e-011 0.707107   
     length 0.894259   
     axis -90 -45 3.84942e-014   XYZ
    dof rx rz
    limits (-45.0 45.0)
           (-45.0 45.0)
  end
:hierarchy
  begin
    root lhipjoint rhipjoint lowerback
    lhipjoint lfemur
    lfemur ltibia
    ltibia lfoot
    lfoot ltoes
    rhipjoint rfemur
    rfemur rtibia
    rtibia rfoot
    rfoot rtoes
    lowerback upperback
    upperback thorax
    thorax lowerneck lclavicle rclavicle
    lowerneck upperneck
    upperneck head
    lclavicle lhumerus
    lhumerus lradius
    lradius lwrist
    lwrist lhand lthumb
    lhand lfingers
    rclavicle rhumerus
    rhumerus rradius
    rradius rwrist
    rwrist rhand rthumb
    rhand rfingers
  end

#!OML:ASF F:\VICON\USERDATA\INSTALL\rory3\rory3.ASF
:FULLY-SPECIFIED
:DEGREES
288
root 9.31062 17.8607 -9.25386 13.818 -68.3835 -4.44911
lowerback 13.4642 7.00846 6.10003
upperback 1.97231 9.88362 -3.52997
thorax -3.69654 4.80397 -8.64469
lowerneck -15.8672 12.4785 -6.34496
upperneck 47.3147 20.4112 2.54591
head 20.3747 6.70027 6.27928
rclavicle -5.51783e-014 3.37468e-014
rhumerus -34.0709 -6.96216 -74.512
rradius 54.5557
rwrist 2.32357
rhand -12.8823 11.1052
rfingers 7.12502
rthumb 13.2067 -18.4565
lclavicle -5.51783e-014 3.37468e-014
lhumerus -38.465 18.0173 70.8719
lradius 40.113
lwrist -4.9959
lhand -20.0829 25.5546
lfingers 7.12502
lthumb 6.25977 55.4421
rfemur 2.67438 -7.13103 25.6928
rtibia 16.7775
rfoot -16.157 -11.8418
rtoes -6.80852
lfemur -30.0437 -1.88362 -20.7731
ltibia 19.1003
lfoot -3.86965 -1.33718
ltoes -13.4742
289
root 9.42085 17.8585 -9.30744 14.6515 -69.1262 -5.11938
lowerback 13.3393 7.09337 6.09863
upperback 2.11088 9.98824 -3.43765
thorax -3.47918 4.87085 -8.52173
lowerneck -16.0549 12.3527 -6.46714
upperneck 47.3017 20.3137 2.43578
head 20.4384 6.61042 6.2506
rclavicle 6.0443e-014 1.40143e-014
rhumerus -33.6802 -6.51127 -74.3756
rradius 54.9221
rwrist 2.02723
rhand -12.6296 11.47
rfingers 7.12502
rthumb 13.4502 -18.0757
lclavicle 6.0443e-014 1.40143e-014
lhumerus -38.3509 18.3193 71.3422
lradius 39.9991
lwrist -5.34566
lhand -20.5432 25.5261
lfingers 7.12502
lthumb 5.81541 55.4263
rfemur 2.26245 -6.78854 25.8791
rtibia 16.2724
rfoot -16.2287 -11.742
rtoes -6.8726
lfemur -30.685 -1.74953 -20.449
ltibia 19.2854
lfoot -4.3009 -1.19566
ltoes -12.1432
290
root 9.5302 17.854 -9.35434 15.5075 -69.809 -5.91703
lowerback 13.4452 7.1431 6.24616
upperback 2.11938 10.0819 -3.36192
thorax -3.4988 4.91412 -8.54708
lowerneck -15.9713 12.233 -6.54664
upperneck 47.2789 20.131 2.38809
head 20.413 6.52099 6.19518
rclavicle -2.05245e-014 -1.98785e-016
rhumerus -33.4281 -6.27896 -74.3185
rradius 55.1092
rwrist 1.86498
rhand -12.8792 11.5374
rfingers 7.12502
rthumb 13.2096 -18.0241
lclavicle -2.05245e-014 -1.98785e-016
lhumerus -38.3948 18.211 71.7809
lradius 39.7462
lwrist -5.3872
lhand -20.8446 25.3652
lfingers 7.12502
lthumb 5.52442 55.2732
rfemur 1.88081 -6.49116 26.0622
rtibia 15.9521
rfoot -16.4445 -11.5382
rtoes -6.34259
lfemur -31.235 -1.89066 -20.0236
ltibia 19.5231
lfoot -4.70353 -0.789065
ltoes -10.9551
291
root 9.63593 17.8488 -9.39834 16.801 -70.446 -7.171
lowerback 13.5162 7.13683 6.56254
upperback 2.12164 10.1253 -3.28994
thorax -3.48486 4.93318 -8.65763
lowerneck -15.875 12.1245 -6.59828
upperneck 47.1119 19.9548 2.29132
head 20.2958 6.45026 6.09678
rclavicle 1.98785e-015 -2.59414e-014
rhumerus -33.0692 -6.24249 -74.4111
rradius 55.0914
rwrist 1.93527
rhand -13.0641 11.6721
rfingers 7.12502
rthumb 13.0314 -17.9009
lclavicle 1.98785e-015 -2.59414e-014
lhumerus -38.27 17.934 72.1302
lradius 39.3649
lwrist -4.97955
lhand -20.747 25.4549
lfingers 7.12502
lthumb 5.6186 55.3604
rfemur 1.3972 -6.19053 26.3991
rtibia 15.8413
rfoot -16.74 -11.2884
rtoes -5.39828
lfemur -31.7342 -1.98816 -19.4795
ltibia 19.7133
lfoot -5.24218 -0.581172
ltoes -11.866
292
root 9.74219 17.8428 -9.4435 18.0075 -71.0149 -8.36262
lowerback 13.6271 7.09882 6.7613
upperback 2.14378 10.113 -3.1694
thorax -3.51164 4.92257 -8.6519
lowerneck -15.9389 12.0334 -6.65004
upperneck 47.0516 19.8429 2.21094
head 20.2928 6.38294 6.04816
rclavicle 3.95333e-014 5.50137e-014
rhumerus -32.8299 -6.05856 -74.4303
rradius 55.216
rwrist 1.93736
rhand -12.9067 11.8666
rfingers 7.12502
rthumb 13.1831 -17.6966
lclavicle 3.95333e-014 5.50137e-014
lhumerus -38.1917 17.83 72.4664
lradius 39.0748
lwrist -4.6567
lhand -20.6618 25.6246
lfingers 7.12502
lthumb 5.70089 55.5279
rfemur 0.874689 -6.05208 26.7087
rtibia 15.8895
rfoot -17.037 -10.9924
rtoes -4.72286
lfemur -32.1496 -2.16712 -18.9338
ltibia 19.8277
lfoot -5.82025 -0.492508
ltoes -12.1901
